<?xml version="1.0" standalone="no"?><!DOCTYPE svg PUBLIC "-//W3C//DTD SVG 1.1//EN" "http://www.w3.org/Graphics/SVG/1.1/DTD/svg11.dtd"><svg class="icon" width="200px" height="200.00px" viewBox="0 0 1024 1024" version="1.1" xmlns="http://www.w3.org/2000/svg"><path fill="#ffffff" d="M779.946667 357.12a42.666667 42.666667 0 1 0-66.56 53.76 170.666667 170.666667 0 0 1 0 202.24A42.666667 42.666667 0 0 0 746.666667 682.666667a42.666667 42.666667 0 0 0 33.28-15.786667 256 256 0 0 0 0-309.76z"  /><path fill="#ffffff" d="M837.973333 223.146667a42.666667 42.666667 0 1 0-54.613333 65.706666A290.133333 290.133333 0 0 1 896 512a290.133333 290.133333 0 0 1-112.64 223.146667 42.666667 42.666667 0 0 0-5.546667 60.16A42.666667 42.666667 0 0 0 810.666667 810.666667a42.666667 42.666667 0 0 0 27.306666-9.813334A373.333333 373.333333 0 0 0 981.333333 512a373.333333 373.333333 0 0 0-143.36-288.853333zM617.386667 133.12a42.666667 42.666667 0 0 0-42.666667 0L298.666667 322.986667H85.333333a42.666667 42.666667 0 0 0-42.666666 42.666666v292.693334a42.666667 42.666667 0 0 0 42.666666 42.666666h213.333334l273.493333 187.733334A45.226667 45.226667 0 0 0 597.333333 896a42.666667 42.666667 0 0 0 42.666667-42.666667V170.666667a42.666667 42.666667 0 0 0-22.613333-37.546667z"  /></svg>